<?xml version="1.0" standalone="no"?><!DOCTYPE svg PUBLIC "-//W3C//DTD SVG 1.1//EN" "http://www.w3.org/Graphics/SVG/1.1/DTD/svg11.dtd"><svg t="1498360394358" class="icon" style="" viewBox="0 0 1024 1024" version="1.1" xmlns="http://www.w3.org/2000/svg" p-id="6233" xmlns:xlink="http://www.w3.org/1999/xlink" width="200" height="200"><defs><style type="text/css"></style></defs><path d="M669.245 216.535c3.113 0 6.031 1.445 7.905 3.901l188.192 244.767c1.382 1.802 2.058 3.922 2.058 6.083 0 2.12-0.655 4.219-1.998 6.021-2.703 3.584-7.465 4.915-11.663 3.256l-124.58-49.224h-5.284c0.246 2.263 0.399 4.516 0.4 6.84h-0.461v103.045c0 146.821-119.429 266.24-266.24 266.24h-34.744c-146.811 0-266.24-119.419-266.24-266.24v-266.025h122.88v266.025c0 79.063 64.307 143.36 143.36 143.36h34.744c79.053 0 143.36-64.297 143.36-143.36v-106.557l-116.192 45.896c-4.168 1.659-8.94 0.317-11.643-3.256s-2.683-8.54 0.061-12.104l188.17-244.756c1.915-2.468 4.813-3.912 7.916-3.912z" p-id="6234" fill="#EE82EE"></path></svg>