<?xml version="1.0" standalone="no"?><!DOCTYPE svg PUBLIC "-//W3C//DTD SVG 1.1//EN" "http://www.w3.org/Graphics/SVG/1.1/DTD/svg11.dtd"><svg t="1498370591670" class="icon" style="" viewBox="0 0 1024 1024" version="1.1" xmlns="http://www.w3.org/2000/svg" p-id="2440" xmlns:xlink="http://www.w3.org/1999/xlink" width="200" height="200"><defs><style type="text/css"></style></defs><path d="M353.28 499.2H187.306667a109.653333 109.653333 0 0 1-109.226667-109.653333V223.573333a109.653333 109.653333 0 0 1 109.226667-109.226666h165.973333a109.653333 109.653333 0 0 1 109.226667 109.226666v165.973334a109.653333 109.653333 0 0 1-109.226667 109.653333zM187.306667 174.08a49.493333 49.493333 0 0 0-49.493334 49.493333v165.973334a49.493333 49.493333 0 0 0 49.493334 49.92h165.973333a49.493333 49.493333 0 0 0 49.92-49.92V223.573333a49.493333 49.493333 0 0 0-49.92-49.493333zM353.28 945.92H187.306667a109.653333 109.653333 0 0 1-109.226667-109.226667v-165.973333a109.653333 109.653333 0 0 1 109.226667-109.226667h165.973333a109.653333 109.653333 0 0 1 109.226667 109.226667v165.973333a109.653333 109.653333 0 0 1-109.226667 109.226667z m-165.973333-325.12a49.493333 49.493333 0 0 0-49.493334 49.493333v165.973334a49.493333 49.493333 0 0 0 49.493334 49.493333h165.973333a49.493333 49.493333 0 0 0 49.493333-49.493333v-165.546667a49.493333 49.493333 0 0 0-49.493333-49.493333zM800.426667 945.92h-165.973334a109.653333 109.653333 0 0 1-109.226666-109.226667v-165.973333a109.653333 109.653333 0 0 1 109.226666-109.226667h165.973334a109.653333 109.653333 0 0 1 109.226666 109.226667v165.973333a109.653333 109.653333 0 0 1-109.226666 109.226667z m-165.973334-325.12a49.493333 49.493333 0 0 0-49.493333 49.493333v165.973334a49.493333 49.493333 0 0 0 49.493333 49.493333h165.973334a49.493333 49.493333 0 0 0 49.493333-49.493333v-165.546667a49.493333 49.493333 0 0 0-49.493333-49.493333zM717.226667 535.466667a104.106667 104.106667 0 0 1-74.24-30.72l-123.733334-124.16a104.533333 104.533333 0 0 1 0-148.053334l123.733334-124.16a104.96 104.96 0 0 1 148.053333 0 29.866667 29.866667 0 0 1-42.666667 42.666667 45.226667 45.226667 0 0 0-63.573333 0l-123.306667 124.16a44.8 44.8 0 0 0 0 63.573333l124.16 124.16a44.8 44.8 0 0 0 63.573334 0l124.16-124.16a44.8 44.8 0 0 0 0-63.573333 29.866667 29.866667 0 1 1 42.666666-42.666667 104.96 104.96 0 0 1 0 148.053334l-124.16 124.16a104.106667 104.106667 0 0 1-74.666666 30.72z" fill="#f4ea2a" p-id="2441"></path></svg>