<?xml version="1.0" standalone="no"?><!DOCTYPE svg PUBLIC "-//W3C//DTD SVG 1.1//EN" "http://www.w3.org/Graphics/SVG/1.1/DTD/svg11.dtd"><svg t="1498370581977" class="icon" style="" viewBox="0 0 1024 1024" version="1.1" xmlns="http://www.w3.org/2000/svg" p-id="2297" xmlns:xlink="http://www.w3.org/1999/xlink" width="200" height="200"><defs><style type="text/css"></style></defs><path d="M102.4 201.2416A106.5728 106.5728 0 0 1 209.4848 94.72h605.0304C873.6512 94.72 921.6 142.5152 921.6 201.216V843.008a106.5728 106.5728 0 0 1-107.0848 106.5216H209.4848C150.3488 949.5296 102.4 901.7344 102.4 843.008V201.216z m35.6096 0V843.008c0 39.0656 32 70.912 71.4752 70.912h605.0304a70.9632 70.9632 0 0 0 71.4752-70.912V201.216c0-39.0656-32-70.912-71.4752-70.912H209.4848a70.9632 70.9632 0 0 0-71.4752 70.912z m35.6352 35.9424a71.1168 71.1168 0 0 1 71.1424-71.2192h534.4256a71.0144 71.0144 0 0 1 71.168 71.2192v213.7344a71.1168 71.1168 0 0 1-71.168 71.2192H244.7872a71.0144 71.0144 0 0 1-71.168-71.2192v-213.76z m35.584 0v213.7344c0 19.8144 15.8208 35.584 35.5584 35.584h534.4256c19.712 0 35.5328-15.872 35.5328-35.584v-213.76c0-19.8144-15.7952-35.584-35.5328-35.584H244.7872c-19.712 0-35.5328 15.872-35.5328 35.584z m391.808 427.6224c0-39.4496 32-71.424 71.168-71.424h71.3728a71.04 71.04 0 0 1 71.168 71.424v106.4448c0 39.424-32 71.424-71.168 71.424h-71.3728a71.04 71.04 0 0 1-71.168-71.424v-106.4448z m35.6352 0v106.4448c0 20.0448 15.7696 35.8144 35.5328 35.8144h71.3728c19.5328 0 35.5584-16.0768 35.5584-35.84V664.832c0-20.0448-15.7696-35.84-35.5584-35.84h-71.3728c-19.5328 0-35.5328 16.0768-35.5328 35.84z m-427.4176-0.2048V628.992h320.5632v35.584H209.2544z m0 71.2192v-35.584h320.5632v35.584H209.2544z m0 71.2448v-35.6096h320.5632v35.6096H209.2544z" p-id="2298" fill="#f4ea2a"></path></svg>