<?xml version="1.0" standalone="no"?><!DOCTYPE svg PUBLIC "-//W3C//DTD SVG 1.1//EN" "http://www.w3.org/Graphics/SVG/1.1/DTD/svg11.dtd"><svg t="1498319528903" class="icon" style="" viewBox="0 0 1024 1024" version="1.1" xmlns="http://www.w3.org/2000/svg" p-id="6921" xmlns:xlink="http://www.w3.org/1999/xlink" width="200" height="200"><defs><style type="text/css"></style></defs><path d="M870.549 128.604H732.508V52.69c0-23.392-20.906-42.417-46.564-42.417H345.506c-25.684 0-46.567 19.025-46.567 42.417v75.914H156.204c-23.803 0-43.154 21.236-43.154 47.333v118.299c0 26.151 19.351 47.359 43.154 47.359h48.779v628.387c0 25.989 21.234 47.115 47.358 47.115h528.538c26.096 0 47.332-21.126 47.332-47.115V341.595h42.338c23.832 0 43.178-21.208 43.178-47.359V175.937c0-26.097-19.346-47.333-43.178-47.333zM584.398 342.167V961.88H451.74V342.167h132.658z m-324.171 0H396.49V961.88H260.227V342.167zM772.992 961.88H639.623V342.167h133.369V961.88z m85.518-675.503H168.269V183.85H354.13V77.016h0.054V65.491h323.105v63.113h-0.027v55.246H858.51v102.527z" fill="#f4ea2a" p-id="6922"></path></svg>