<?xml version="1.0" standalone="no"?><!DOCTYPE svg PUBLIC "-//W3C//DTD SVG 1.1//EN" "http://www.w3.org/Graphics/SVG/1.1/DTD/svg11.dtd"><svg t="1498556976229" class="icon" style="" viewBox="0 0 1024 1024" version="1.1" xmlns="http://www.w3.org/2000/svg" p-id="1562" xmlns:xlink="http://www.w3.org/1999/xlink" width="200" height="200"><defs><style type="text/css"></style></defs><path d="M746.675322 442.651562c-0.503467-3.155876-2.432399-6.245238-5.324262-9.203616-23.338544 23.699772-117.192096 27.622104-229.389434 27.622104-112.217804 0-205.980281-3.922333-229.405807-27.622104-2.880607 2.958378-4.678556 6.04774-5.335519 9.203616l-0.218988 0 0.065492 1.708921c0 0.197498-0.065492 0.394996-0.065492 0.597611 0 0.460488 0.130983 0.870834 0.197498 1.308809l18.264992 374.209774 0.044002 0c1.620917 29.342282 35.215036 73.694419 216.45382 73.694419 181.244924 0 214.860533-44.352137 216.438471-73.694419l0.132006 0 18.297738-374.209774c0.021489-0.437975 0.174985-0.849344 0.174985-1.308809 0-0.202615-0.152473-0.400113-0.152473-0.597611l0.152473-1.708921L746.675322 442.651562z" p-id="1563" fill="#f4ea2a"></path><path d="M623.631962 246.799966l0-88.354304c0-15.95846-13.060457-29.133527-29.100782-29.133527L419.662477 129.312134c-15.95232 0-29.079292 13.175067-29.079292 29.133527l0 89.36226c-86.442768 9.806343-145.630798 29.659507-145.630798 52.668547l0 43.673685c0 8.962116 9.072633 17.48728 25.353434 25.178449 42.643216 20.039405 134.826731 33.932834 241.654782 33.932834 106.893542 0 199.039195-13.893428 241.747903-33.932834 16.172331-7.691169 25.331945-16.216333 25.331945-25.178449l0-43.673685C779.041474 276.66311 715.295638 256.168334 623.631962 246.799966zM446.484356 243.140623l-7.362688 0.460488 0-36.600593c0-16.002462 2.234901-29.105898 4.864798-29.105898 2.716878 0 17.990746 0 34.009582 0l58.268078 0c15.95232 0 31.29168 0 33.964556 0 2.696412 0 4.886287 13.104459 4.886287 29.105898l0 36.009122c-20.269649-1.051959-41.349757-1.708921-63.154365-1.708921C489.346559 241.299695 467.389478 241.957681 446.484356 243.140623z" p-id="1564" fill="#f4ea2a"></path></svg>