<?xml version="1.0" standalone="no"?><!DOCTYPE svg PUBLIC "-//W3C//DTD SVG 1.1//EN" "http://www.w3.org/Graphics/SVG/1.1/DTD/svg11.dtd"><svg t="1498316016166" class="icon" style="" viewBox="0 0 1024 1024" version="1.1" xmlns="http://www.w3.org/2000/svg" p-id="3043" xmlns:xlink="http://www.w3.org/1999/xlink" width="200" height="200"><defs><style type="text/css"></style></defs><path d="M143.36 40.96 143.36 61.44 143.36 962.56 143.36 983.04 163.84 983.04 860.16 983.04 880.64 983.04 880.64 962.56 880.64 307.2 880.64 298.88 874.88 292.48 629.12 46.72 622.72 40.96 614.4 40.96 163.84 40.96 143.36 40.96zM184.32 81.92 593.92 81.92 593.92 307.2 593.92 327.68 614.4 327.68 839.68 327.68 839.68 942.08 184.32 942.08 184.32 81.92zM634.88 111.36 810.24 286.72 634.88 286.72 634.88 111.36z" p-id="3044" fill="#f4ea2a"></path></svg>