<?xml version="1.0" standalone="no"?><!DOCTYPE svg PUBLIC "-//W3C//DTD SVG 1.1//EN" "http://www.w3.org/Graphics/SVG/1.1/DTD/svg11.dtd"><svg t="1498313613921" class="icon" style="" viewBox="0 0 1000 1000" version="1.1" xmlns="http://www.w3.org/2000/svg" p-id="2349" xmlns:xlink="http://www.w3.org/1999/xlink" width="200" height="200"><defs><style type="text/css"></style></defs><path d="M108.7497 102.8593c9.9017-4.6858 21.0466-4.6698 31.7658-4.5329 60.2066 0.051 120.4133-0.052 180.6199 0.051 10.9061-0.2728 20.9437 5.3843 28.4599 12.9162 15.5581 15.7803 24.2326 36.7401 38.6324 53.4228 1.8568 2.4873 4.635 3.8854 7.771 3.4597 163.6478-0.068 327.2785 0 490.9263-0.034 10.2585-0.1199 20.8917-0.2388 30.4866 3.9703 18.4562 7.2761 31.39 25.7825 32.5832 45.5161v598.7910196886511c-1.0733 19.3409-13.4284 37.5565-31.2891 45.2073-10.4274 4.9267-22.1859 4.6199-33.4327 4.5169-251.105-0.033-502.2251 0-753.3461-0.017-12.492 0.2568-25.103-3.6475-34.8158-11.5891-11.5367-9.1158-18.5422-23.2442-19.6325-37.8284V148.06761016031135C78.536 128.7257 90.8911 110.5101 108.7497 102.8593zM112.4304 151.6122c-0.1869 41.4429 0.018 82.9028-0.1019 124.3627 6.305-2.3344 13.0367-3.1349 19.7164-3.1349 251.6147 0 503.2294 0 754.8612 0 9.46-0.0859 19.2417-0.3068 28.238 3.1349-0.2029-18.7793 0.2398-37.5575-0.2209-56.3368-0.1369-9.8673-9.6978-17.4322-19.2737-16.5967-164.2264-0.018-328.4538 0-492.6812 0-6.7667-0.034-13.6673 0.4427-20.2621-1.2951-7.4463-2.1645-13.8712-6.8504-19.2397-12.3206-14.2459-15.2846-22.9204-34.6435-36.093-50.7466-2.4025-2.8631-5.3506-6.2707-9.5429-5.4703-62.5072 0.1029-125.0144-0.1199-187.5225 0.1029C120.4233 132.9009 111.8508 141.7799 112.4304 151.6122zM123.7971 308.9475c-6.0831 2.1985-11.042 8.1625-10.8891 14.808-0.4777 71.0079 0.4257 142.0337-0.5457 213.0066-0.017 90.9303 0.017 181.8417-0.017 272.7531-0.017 4.9756 0.2898 10.378 3.4598 14.4842 3.5607 5.1625 9.9856 7.412 16.0858 7.2261 252.2463 0.066 504.4906-0.018 756.7539 0.033 6.6448-0.0839 14.178 0.7155 19.6995-3.8174 5.6584-4.1072 7.1055-11.4862 6.7827-18.0797-0.2388-106.7596 0.4427-213.5372-0.4417-320.2958-0.035-54.4961 0.05-109.0091-0.052-163.5041 0.4937-6.0159-2.6073-11.9459-7.7371-15.0298-5.9472-3.7674-13.2915-2.6082-19.9553-2.8121-251.0861 0.018-502.1901 0.018-753.2762 0C130.341 307.7723 126.9501 307.8403 123.7971 308.9475z" p-id="2350" fill="#f4ea2a"></path></svg>