<?xml version="1.0" standalone="no"?><!DOCTYPE svg PUBLIC "-//W3C//DTD SVG 1.1//EN" "http://www.w3.org/Graphics/SVG/1.1/DTD/svg11.dtd"><svg t="1498311742200" class="icon" style="" viewBox="0 0 1024 1024" version="1.1" xmlns="http://www.w3.org/2000/svg" p-id="7066" xmlns:xlink="http://www.w3.org/1999/xlink" width="200" height="200"><defs><style type="text/css"></style></defs><path d="M256 128q0-24.576 11.264-40.448t29.184-20.48 40.96 2.048 46.592 27.136q98.304 84.992 181.248 159.744t163.84 148.48q20.48 18.432 31.232 44.544t11.264 53.76-8.704 53.248-28.672 44.032q-41.984 40.96-87.552 84.48t-91.648 86.528-91.648 84.992-87.552 79.872q-19.456 17.408-40.448 22.528t-38.912-0.512-28.672-20.992-10.752-39.936l0-100.352 0-141.312q0-76.8-0.512-159.744t-0.512-155.648l0-131.072 0-80.896z" p-id="7067" fill="#f4ea2a"></path></svg>