<?xml version="1.0" standalone="no"?><!DOCTYPE svg PUBLIC "-//W3C//DTD SVG 1.1//EN" "http://www.w3.org/Graphics/SVG/1.1/DTD/svg11.dtd"><svg t="1498313021204" class="icon" style="" viewBox="0 0 1024 1024" version="1.1" xmlns="http://www.w3.org/2000/svg" p-id="1001" xmlns:xlink="http://www.w3.org/1999/xlink" width="200" height="200"><defs><style type="text/css"></style></defs><path d="M800 256l0-96 64 0c17.664 0 32-14.336 32-32L896 32c0-17.664-14.336-32-32-32L160 0C142.336 0 128 14.336 128 32l0 96c0 17.664 14.336 32 32 32l64 0 0 96c0 111.472 63.776 208.16 156.672 256C287.776 559.84 224 656.528 224 768l0 96-64 0c-17.664 0-32 14.336-32 32l0 96c0 17.664 14.336 32 32 32l704 0c17.664 0 32-14.336 32-32l0-96c0-17.664-14.336-32-32-32l-64 0 0-96c0-111.472-63.776-208.16-156.672-256C736.224 464.16 800 367.472 800 256zM192 64l640 0 0 32L192 96 192 64zM832 960 192 960l0-32 640 0L832 960zM736 768l0 96L288 864l0-96c0-123.52 100.48-224 224-224S736 644.48 736 768zM512 480c-123.52 0-224-100.48-224-224l0-96 448 0 0 96C736 379.52 635.52 480 512 480z" p-id="1002" fill="#f4ea2a"></path></svg>