<?xml version="1.0" standalone="no"?><!DOCTYPE svg PUBLIC "-//W3C//DTD SVG 1.1//EN" "http://www.w3.org/Graphics/SVG/1.1/DTD/svg11.dtd"><svg t="1498361805319" class="icon" style="" viewBox="0 0 1024 1024" version="1.1" xmlns="http://www.w3.org/2000/svg" p-id="7531" xmlns:xlink="http://www.w3.org/1999/xlink" width="200" height="200"><defs><style type="text/css"></style></defs><path d="M829.567729 193.579857" p-id="7532" fill="#EE82EE"></path><path d="M567.011918 714.698538c-24.186865 0-47.865147-3.299139-70.530356-9.664104l-71.863724 71.863724c-23.863501 23.863501-55.592133 37.005822-89.340771 37.005822s-65.47727-13.142322-89.341794-37.005822c-49.262984-49.262984-49.262984-129.419582 0-178.681542l120.530121-120.530121c23.863501-23.863501 55.592133-37.006845 89.340771-37.006845s65.47727 13.142322 89.340771 37.006845c14.827707 14.827707 25.512047 32.692586 31.479969 52.189639 16.437367-2.086521 31.639604-9.486048 43.545772-21.392216l26.018583-26.018583c-10.254551-23.064298-24.774243-44.281529-43.157939-62.665225-39.326681-39.326681-91.611487-60.983933-147.228179-60.983933-55.615669 0-107.901499 21.658276-147.228179 60.983933L188.048887 540.330232c-81.181951 81.181951-81.181951 213.273385 0 294.455335 39.325657 39.326681 91.612511 60.983933 147.228179 60.983933 55.615669 0 107.901499-21.657252 147.228179-60.983933l120.530121-120.530121c0.775666-0.775666 1.531889-1.564635 2.294252-2.350534C592.752162 713.75505 579.954695 714.698538 567.011918 714.698538z" p-id="7533" fill="#EE82EE"></path><path d="M834.770218 187.56384c-39.326681-39.326681-91.612511-60.983933-147.227156-60.983933-55.615669 0-107.901499 21.658276-147.228179 60.983933L419.783739 308.09396c-0.775666 0.775666-1.531889 1.564635-2.294252 2.350534 12.57541-1.851161 25.3739-2.793626 38.316677-2.793626 24.186865 0 47.865147 3.299139 70.530356 9.664104l71.863724-71.863724c23.863501-23.863501 55.592133-37.006845 89.341794-37.006845 33.747615 0 65.476247 13.142322 89.340771 37.006845 49.262984 49.262984 49.262984 129.419582 0 178.682565L656.352689 544.662911c-23.863501 23.863501-55.592133 37.005822-89.341794 37.005822-33.747615 0-65.476247-13.142322-89.340771-37.005822-14.827707-14.827707-25.512047-32.692586-31.480992-52.190663-16.437367 2.086521-31.638581 9.486048-43.544749 21.393239l-26.019607 26.019607c10.254551 23.064298 24.774243 44.280506 43.157939 62.664202 39.326681 39.326681 91.612511 60.983933 147.228179 60.983933s107.901499-21.657252 147.228179-60.983933l120.530121-120.530121C915.952168 400.838248 915.952168 268.74579 834.770218 187.56384z" p-id="7534" fill="#EE82EE"></path></svg>