<?xml version="1.0" standalone="no"?><!DOCTYPE svg PUBLIC "-//W3C//DTD SVG 1.1//EN" "http://www.w3.org/Graphics/SVG/1.1/DTD/svg11.dtd"><svg t="1498655410090" class="icon" style="" viewBox="0 0 1024 1024" version="1.1" xmlns="http://www.w3.org/2000/svg" p-id="5252" xmlns:xlink="http://www.w3.org/1999/xlink" width="200" height="200"><defs><style type="text/css"></style></defs><path d="M369.928 8.564C513.91-7.623 662.674-2.835 801.863 40.136c44.803 16.876 101.117 36.136 118.328 85.498 5.243 121.411 0.116 243.156 2.394 364.679 4.219 94.382-31.232 184.911-75.69 266.412-62.927 111.381-159.484 208.612-281.458 252.842-22.343 7.291-46.055 19.604-69.995 12.078C357.164 984.718 245.9 879.95 177.046 757.181c-43.205-78.206-77.516-165.184-75.918-255.925 0.796-117.871-0.117-235.631 0.45-353.502-3.757-37.049 26.907-64.067 56.319-80.143C223.101 32.499 297.199 18.25 369.928 8.564zM191.296 295.271c41.607-22.577 87.551-54.271 137.252-40.812 40.813 11.166 57.572 53.236 85.042 80.822 22.916 19.838 60.421-8.327 51.187-36.136-29.979-56.665-91.999-105.113-159.484-91.888-50.498 8.094-85.838 48.56-113.997 88.014z m367.868 3.64c-10.827 26.796 28.499 57.566 50.613 36.593 27.247-27.92 44.464-69.645 85.158-81.045 49.701-13.114 95.984 18.124 137.481 40.812-28.271-39.342-63.957-79.92-114.454-88.125-67.145-12.892-129.158 35.334-158.798 91.765zM213.07 376.315c52.896 44.909 134.286 44.797 187.299 0-52.895-44.796-134.519-44.908-187.299 0z m410.389 0c52.896 44.909 134.286 44.909 187.183 0-52.78-44.908-134.404-44.908-187.183 0zM191.641 546.398c38.869 60.761 76.603 122.212 115.021 183.308h161.076c15.162-15.273 30.436-30.325 45.599-45.487 15.279 15.162 30.553 30.324 45.716 45.599 52.662-0.111 105.33-0.111 157.998-0.111 38.646-61.329 76.263-123.237 115.822-183.876-45.827 38.753-92.455 76.38-138.055 115.478-30.091 0-60.076 0-90.167 0.111-22.8-23.021-45.827-45.599-68.627-68.51-15.051 0-30.208-0.111-45.259-0.111-22.8 22.911-45.938 45.6-68.627 68.621-31.12-0.111-62.241-0.111-93.245-0.111-45.371-38.876-91.654-76.381-137.252-114.911z m274.616 274.505c0 37.506 0 74.899-0.111 112.394 15.842 15.63 31.572 31.472 47.308 47.313a8103.202 8103.202 0 0 1 44.002-44.341V820.903h-91.199z" fill="#515151" p-id="5253"></path></svg>