<?xml version="1.0" standalone="no"?><!DOCTYPE svg PUBLIC "-//W3C//DTD SVG 1.1//EN" "http://www.w3.org/Graphics/SVG/1.1/DTD/svg11.dtd"><svg t="1498312145699" class="icon" style="" viewBox="0 0 1024 1024" version="1.1" xmlns="http://www.w3.org/2000/svg" p-id="7968" xmlns:xlink="http://www.w3.org/1999/xlink" width="200" height="200"><defs><style type="text/css"></style></defs><path d="M835.072 184.32l-77.824 81.92c-64.512-66.56-153.6-106.496-251.904-106.496-195.584 0-355.328 159.744-355.328 354.304 0 195.584 159.744 354.304 355.328 354.304 147.456 0 304.128-80.896 337.92-245.76 3.072-15.36-9.216-23.552-21.504-23.552l-72.704 0c-15.36 0-28.672 14.336-29.696 24.576 0 2.048 0 3.072-1.024 3.072-32.768 96.256-107.52 119.808-212.992 119.808-128 0-232.448-104.448-232.448-232.448s104.448-231.424 232.448-231.424c64.512 0 121.856 26.624 165.888 69.632l-101.376 100.352c-1.024 0-1.024 1.024-2.048 1.024-20.48 22.528-12.288 37.888 11.264 37.888l256 0c22.528 0 36.864-15.36 36.864-37.888L871.936 193.536C870.912 174.08 857.6 166.912 835.072 184.32z" p-id="7969" fill="#f4ea2a"></path></svg>