<?xml version="1.0" standalone="no"?><!DOCTYPE svg PUBLIC "-//W3C//DTD SVG 1.1//EN" "http://www.w3.org/Graphics/SVG/1.1/DTD/svg11.dtd"><svg t="1498308254218" class="icon" style="" viewBox="0 0 1024 1024" version="1.1" xmlns="http://www.w3.org/2000/svg" p-id="2424" xmlns:xlink="http://www.w3.org/1999/xlink" width="200" height="200"><defs><style type="text/css"></style></defs><path d="M800 64l-576 0C204.8 64 192 76.8 192 96l0 832C192 947.2 204.8 960 224 960l576 0c19.2 0 32-12.8 32-32l0-832C832 76.8 819.2 64 800 64zM544 608C524.8 608 512 595.2 512 576s12.8-32 32-32S576 556.8 576 576 563.2 608 544 608zM704 640c-38.4 0-64-25.6-64-64s25.6-64 64-64 64 25.6 64 64S742.4 640 704 640zM768 448 256 448 256 320l512 0L768 448zM768 256 256 256 256 128l512 0L768 256z" p-id="2425" fill="#f4ea2a"></path><path d="M704 576m-32 0a0.5 0.5 0 1 0 64 0 0.5 0.5 0 1 0-64 0Z" p-id="2426" fill="#f4ea2a"></path></svg>