<?xml version="1.0" standalone="no"?><!DOCTYPE svg PUBLIC "-//W3C//DTD SVG 1.1//EN" "http://www.w3.org/Graphics/SVG/1.1/DTD/svg11.dtd"><svg t="1498365945489" class="icon" style="" viewBox="0 0 1024 1024" version="1.1" xmlns="http://www.w3.org/2000/svg" p-id="8265" xmlns:xlink="http://www.w3.org/1999/xlink" width="200" height="200"><defs><style type="text/css"></style></defs><path d="M512 104.1c55.1 0 108.5 10.8 158.8 32 48.6 20.5 92.2 50 129.7 87.4 37.5 37.5 66.9 81.1 87.4 129.7 21.3 50.3 32 103.7 32 158.8 0 55.1-10.8 108.5-32 158.8-20.5 48.6-50 92.2-87.4 129.7-37.5 37.5-81.1 66.9-129.7 87.4-50.3 21.3-103.7 32-158.8 32-55.1 0-108.5-10.8-158.8-32-48.6-20.5-92.2-50-129.7-87.4-37.5-37.5-66.9-81.1-87.4-129.7-21.3-50.3-32-103.7-32-158.8 0-55.1 10.8-108.5 32-158.8 20.5-48.6 50-92.2 87.4-129.7 37.5-37.5 81.1-66.9 129.7-87.4 50.3-21.2 103.7-32 158.8-32m0-40.1C264.6 64 64 264.6 64 512s200.6 448 448 448 448-200.6 448-448S759.4 64 512 64z m12.2 194.2h-24.4c-10.6 0-19.3 8.7-19.3 19.3v170.1c0 10.6 8.7 19.3 19.3 19.3h24.4c10.6 0 19.3-8.7 19.3-19.3V277.4c0-10.6-8.7-19.2-19.3-19.2z m107.9 208.6h24.4c10.6 0 19.3-8.7 19.3-19.3v-18.3h6.4c30.5 0 55.5-25 55.5-55.5v-22.4c0-30.5-25-55.5-55.5-55.5h-6.4v-18.3c0-10.6-8.7-19.3-19.3-19.3h-24.4c-10.6 0-19.3 8.7-19.3 19.3v170.1c0.1 10.6 8.8 19.2 19.3 19.2z m-290.3-37.5h6.4v18.3c0 10.6 8.7 19.3 19.3 19.3h24.4c10.6 0 19.3-8.7 19.3-19.3V277.4c0-10.6-8.7-19.3-19.3-19.3h-24.4c-10.6 0-19.3 8.7-19.3 19.3v18.3h-6.4c-30.5 0-55.5 25-55.5 55.5v22.4c-0.1 30.7 24.9 55.7 55.5 55.7z m0.5 148.1c-5.3-9.2-17.1-12.4-26.3-7l-21.1 12.2c-9.2 5.3-12.4 17.1-7.1 26.3l85.1 147.3c5.3 9.2 17.1 12.3 26.3 7.1l21.1-12.2c9.2-5.3 12.4-17.1 7.1-26.3l-85.1-147.4z m386.8 5.1L708 570.4c-9.2-5.3-21-2.1-26.3 7.1l-85.1 147.3c-5.3 9.2-2.1 21 7.1 26.3l21.1 12.2c9.2 5.3 21 2.1 26.3-7.1l85.1-147.3c5.3-9.2 2.1-21.1-7.1-26.4z" p-id="8266" fill="#bb00bb"></path></svg>