<?xml version="1.0" standalone="no"?><!DOCTYPE svg PUBLIC "-//W3C//DTD SVG 1.1//EN" "http://www.w3.org/Graphics/SVG/1.1/DTD/svg11.dtd"><svg t="1498308996018" class="icon" style="" viewBox="0 0 1024 1024" version="1.1" xmlns="http://www.w3.org/2000/svg" p-id="3338" xmlns:xlink="http://www.w3.org/1999/xlink" width="200" height="200"><defs><style type="text/css"></style></defs><path d="M959.356058 863.374696c0 15.671934-2.79579 30.896684-7.366067 45.792952-135.906907 54.679343-295.099101 86.194104-465.340396 86.194104-146.158819 0-284.078654-23.343661-406.214352-64.461127-9.975608-21.553898-15.791301-44.13008-15.791301-67.525929 0-118.395504 136.72661-218.099297 323.454059-249.338788-79.264532-61.486376-133.06609-181.231621-133.06609-318.92975 0-200.444195 114.001095-269.006733 254.627689-269.006733 140.633757 0 254.635876 68.561515 254.635876 269.006733 0 137.28062-53.4966 256.67487-132.373283 318.378188C820.660524 643.932822 959.356058 744.129848 959.356058 863.374696zM639.45916 643.284045c-36.981792 23.298636-81.910913 37.128619-130.486227 37.128619-46.465168 0-89.643339-12.644995-125.684673-34.124192-0.790026 2.661619-1.341611 5.338588-1.341611 8.148587 0 33.028231 58.171259 59.741639 129.927478 59.741639s129.927478-26.713408 129.927478-59.741639C641.800583 650.539286 640.943016 646.886083 639.45916 643.284045z" p-id="3339" fill="#f4ea2a"></path></svg>